<?xml version="1.0" encoding="UTF-8" standalone="no"?>
<!DOCTYPE svg PUBLIC "-//W3C//DTD SVG 1.1//EN"
 "http://www.w3.org/Graphics/SVG/1.1/DTD/svg11.dtd">
<!-- Generated by graphviz version 12.2.1 (20241206.2353)
 -->
<!-- Pages: 1 -->
<svg width="1764pt" height="100pt"
 viewBox="0.00 0.00 1764.00 100.00" xmlns="http://www.w3.org/2000/svg" xmlns:xlink="http://www.w3.org/1999/xlink">
<g id="graph0" class="graph" transform="scale(1 1) rotate(0) translate(4 96)">
<polygon fill="white" stroke="none" points="-4,4 -4,-96 1760,-96 1760,4 -4,4"/>
<!-- 4349382800 -->
<g id="node1" class="node">
<title>4349382800</title>
<polygon fill="none" stroke="black" points="941,-27.5 941,-63.5 1756,-63.5 1756,-27.5 941,-27.5"/>
<text text-anchor="middle" x="1312" y="-40.7" font-family="Times,serif" font-size="14.00">data [[1.,1.,1.,...,1.,1.,1.], [1.,1.,1.,...,1.,1.,1.], [1.,1.,1.,...,1.,1.,1.], ..., [1.,1.,1.,...,1.,1.,1.], [1.,1.,1.,...,1.,1.,1.], [1.,1.,1.,...,1.,1.,1.]]</text>
<polyline fill="none" stroke="black" points="1683,-28 1683,-63.5"/>
<text text-anchor="middle" x="1719.5" y="-40.7" font-family="Times,serif" font-size="14.00">grad None</text>
</g>
<!-- 4349382800* -->
<g id="node2" class="node">
<title>4349382800*</title>
<ellipse fill="none" stroke="black" cx="878" cy="-45.5" rx="27" ry="18"/>
<text text-anchor="middle" x="878" y="-40.45" font-family="Times,serif" font-size="14.00">*</text>
</g>
<!-- 4349382800*&#45;&gt;4349382800 -->
<g id="edge1" class="edge">
<title>4349382800*&#45;&gt;4349382800</title>
<path fill="none" stroke="black" d="M905.19,-45.5C912.04,-45.5 920.07,-45.5 929.09,-45.5"/>
<polygon fill="black" stroke="black" points="929.05,-49 939.04,-45.5 929.04,-42 929.05,-49"/>
</g>
<!-- 4349165648 -->
<g id="node3" class="node">
<title>4349165648</title>
<polygon fill="none" stroke="black" points="0,-55.5 0,-91.5 815,-91.5 815,-55.5 0,-55.5"/>
<text text-anchor="middle" x="371" y="-68.7" font-family="Times,serif" font-size="14.00">data [[1.,1.,1.,...,1.,1.,1.], [1.,1.,1.,...,1.,1.,1.], [1.,1.,1.,...,1.,1.,1.], ..., [1.,1.,1.,...,1.,1.,1.], [1.,1.,1.,...,1.,1.,1.], [1.,1.,1.,...,1.,1.,1.]]</text>
<polyline fill="none" stroke="black" points="742,-56 742,-91.5"/>
<text text-anchor="middle" x="778.5" y="-68.7" font-family="Times,serif" font-size="14.00">grad None</text>
</g>
<!-- 4349165648&#45;&gt;4349382800* -->
<g id="edge3" class="edge">
<title>4349165648&#45;&gt;4349382800*</title>
<path fill="none" stroke="black" d="M717.73,-55.02C766.36,-52.11 810.16,-49.49 839.46,-47.74"/>
<polygon fill="black" stroke="black" points="839.44,-51.25 849.21,-47.16 839.02,-44.26 839.44,-51.25"/>
</g>
<!-- 4349382480 -->
<g id="node4" class="node">
<title>4349382480</title>
<polygon fill="none" stroke="black" points="0,-0.5 0,-36.5 815,-36.5 815,-0.5 0,-0.5"/>
<text text-anchor="middle" x="371" y="-13.7" font-family="Times,serif" font-size="14.00">data [[1.,1.,1.,...,1.,1.,1.], [1.,1.,1.,...,1.,1.,1.], [1.,1.,1.,...,1.,1.,1.], ..., [1.,1.,1.,...,1.,1.,1.], [1.,1.,1.,...,1.,1.,1.], [1.,1.,1.,...,1.,1.,1.]]</text>
<polyline fill="none" stroke="black" points="742,-1 742,-36.5"/>
<text text-anchor="middle" x="778.5" y="-13.7" font-family="Times,serif" font-size="14.00">grad None</text>
</g>
<!-- 4349382480&#45;&gt;4349382800* -->
<g id="edge2" class="edge">
<title>4349382480&#45;&gt;4349382800*</title>
<path fill="none" stroke="black" d="M729.41,-36.99C773.18,-39.52 812.26,-41.77 839.19,-43.32"/>
<polygon fill="black" stroke="black" points="838.99,-46.82 849.17,-43.9 839.39,-39.83 838.99,-46.82"/>
</g>
</g>
</svg>
